<svg width="20" height="20" viewBox="0 0 20 20" fill="none" xmlns="http://www.w3.org/2000/svg">
<path d="M9.99999 3.33334C7.34784 3.33334 4.80431 4.3869 2.92893 6.26227C1.05357 8.13762 9.00861e-07 10.6812 9.00861e-07 13.3333C-0.00044079 14.3656 0.161541 15.3914 0.480001 16.3733C0.506406 16.4576 0.559966 16.5308 0.632323 16.5814C0.70468 16.6321 0.791768 16.6574 0.88 16.6533H19.12C19.2082 16.6574 19.2953 16.6321 19.3677 16.5814C19.44 16.5308 19.4936 16.4576 19.52 16.3733C19.8385 15.3914 20.0004 14.3656 20 13.3333C20 10.6812 18.9464 8.13762 17.0711 6.26227C15.1957 4.3869 12.6522 3.33334 9.99999 3.33334Z" fill="#9BA1B2" fill-opacity="0.3"/>
<path d="M14.3199 8.45336L9.43993 12.7333H9.39992C9.3204 12.8112 9.25798 12.9047 9.21666 13.008C9.17532 13.1113 9.156 13.2221 9.15992 13.3334C9.1697 13.553 9.26134 13.761 9.41681 13.9165C9.57228 14.0719 9.78028 14.1636 9.99993 14.1733C10.115 14.1781 10.2296 14.1551 10.334 14.1064C10.4384 14.0577 10.5296 13.9846 10.5999 13.8934L14.8799 9.01336C14.9258 8.97897 14.9637 8.93512 14.9911 8.88482C15.0186 8.8345 15.0349 8.77887 15.0389 8.7217C15.043 8.66453 15.0347 8.60718 15.0147 8.55347C14.9946 8.49979 14.9633 8.45101 14.9228 8.41049C14.8822 8.36997 14.8335 8.33865 14.7798 8.31859C14.7261 8.29855 14.6687 8.29029 14.6116 8.29434C14.5544 8.29842 14.4988 8.31472 14.4485 8.34214C14.3981 8.36958 14.3543 8.40751 14.3199 8.45336Z" fill="#9BA1B2"/>
<path d="M9.99999 3.33334C7.34784 3.33334 4.80431 4.3869 2.92893 6.26227C1.05357 8.13762 9.00861e-07 10.6812 9.00861e-07 13.3333C-0.00044079 14.3656 0.161541 15.3914 0.480001 16.3733C0.506406 16.4576 0.559966 16.5308 0.632323 16.5814C0.70468 16.6321 0.791768 16.6574 0.88 16.6533H19.12C19.2082 16.6574 19.2953 16.6321 19.3677 16.5814C19.44 16.5308 19.4936 16.4576 19.52 16.3733C19.8385 15.3914 20.0004 14.3656 20 13.3333C20 10.6812 18.9464 8.13762 17.0711 6.26227C15.1957 4.3869 12.6522 3.33334 9.99999 3.33334ZM17.92 13.7333H19.12C19.1146 14.4516 19.0068 15.1655 18.8 15.8533H1.2C0.993161 15.1655 0.885411 14.4516 0.88 13.7333H2.08C2.18609 13.7333 2.28783 13.6912 2.36284 13.6162C2.43786 13.5412 2.48 13.4394 2.48 13.3333C2.48 13.2272 2.43786 13.1255 2.36284 13.0505C2.28783 12.9755 2.18609 12.9333 2.08 12.9333H0.84C0.904378 11.6058 1.2594 10.3086 1.88 9.13334L2.92001 9.73333H3.16001C3.2325 9.73578 3.30429 9.71846 3.36772 9.68322C3.43112 9.648 3.48376 9.59618 3.51999 9.53334C3.56616 9.43653 3.57538 9.32619 3.54591 9.22307C3.51645 9.11994 3.45033 9.03115 3.35999 8.97334L2.28 8.41334C3.00296 7.291 3.95766 6.3363 5.08001 5.61334L5.67999 6.69333C5.71913 6.75351 5.77241 6.80319 5.83514 6.83804C5.89791 6.87291 5.96824 6.89188 6.04 6.89334H6.23999C6.29538 6.86463 6.34402 6.82445 6.3827 6.77552C6.42138 6.72655 6.44922 6.66994 6.46435 6.60942C6.47948 6.54889 6.48156 6.48586 6.47048 6.42445C6.45937 6.36308 6.43537 6.30473 6.39999 6.25335L5.8 5.21334C6.97528 4.59274 8.27249 4.23771 9.59999 4.17333V5.41334C9.59999 5.51942 9.64213 5.62116 9.71715 5.69618C9.79217 5.77119 9.8939 5.81334 9.99999 5.81334C10.1061 5.81334 10.2078 5.77119 10.2828 5.69618C10.3579 5.62116 10.4 5.51942 10.4 5.41334V4.17333C11.7275 4.23771 13.0247 4.59274 14.2 5.21334L13.6 6.25335C13.5419 6.35418 13.5261 6.47392 13.5561 6.58637C13.5861 6.69882 13.6594 6.7948 13.76 6.85333H13.96C14.0318 6.85189 14.1021 6.83293 14.1648 6.79805C14.2276 6.76318 14.2808 6.7135 14.32 6.65334L14.92 5.57334C16.0423 6.29632 16.997 7.25099 17.72 8.37333L16.64 8.97334C16.5497 9.03115 16.4835 9.11994 16.4541 9.22307C16.4246 9.32619 16.4338 9.43653 16.48 9.53334C16.5162 9.59618 16.5689 9.648 16.6323 9.68322C16.6957 9.71846 16.7675 9.73578 16.84 9.73333H17.08L18.12 9.13334C18.7406 10.3086 19.0956 11.6058 19.16 12.9333H17.92C17.8642 12.9277 17.8078 12.9339 17.7546 12.9515C17.7014 12.969 17.6524 12.9976 17.6109 13.0354C17.5694 13.0731 17.5363 13.1191 17.5138 13.1704C17.4912 13.2218 17.4797 13.2773 17.48 13.3333C17.49 13.443 17.5407 13.5449 17.6222 13.6189C17.7037 13.693 17.8099 13.7338 17.92 13.7333Z" fill="#9BA1B2"/>
</svg>
